<svg width="702" height="384" viewBox="0 0 702 384" fill="none" xmlns="http://www.w3.org/2000/svg">
<rect x="625.044" y="102" width="3" height="4" fill="white"/>
<rect x="350.044" y="41" width="3" height="4" fill="white"/>
<path d="M667.651 383.017C462.55 382.148 254.863 383.886 49.762 383.017C28 382.925 5.42998e-05 354 0 321C-6.41419e-05 282.019 57.9478 248.724 57.9478 248.724C74.3098 233.96 56.3172 211.164 72.8732 186.428C82.9105 171.431 100.967 161.744 117.649 160.315C146.885 157.808 159.023 181.757 172.127 175.609C193.239 165.709 163.877 102.562 198.247 57.7302C202.821 51.7617 214.758 36.1949 234.441 31.6178C266.706 24.116 282.721 54.7609 311.68 47.6583C336.564 41.5554 335.225 16.3531 367.277 4.7592C371.355 3.28571 391.706 -3.66021 413.546 2.52099C459.315 15.4728 455.307 70.1299 498.248 82.3506C523.102 89.4233 536.416 74.5206 564.666 87.9461C581.323 95.8619 591.181 107.93 594.89 112.566C617.972 141.436 604.685 160.699 622.875 186.428C644.129 216.487 673.047 205.437 684.069 231.938C693.233 253.969 674.405 264.403 682.577 297.219C688.808 322.246 702.808 328.416 700.86 345.341C698.819 363.086 681.215 375.56 667.651 383.017Z" fill="#F8F8FE"/>
<rect x="39.1188" y="380.994" width="625.512" height="2.31871" rx="1.15936" fill="#E2E6FB"/>
<path d="M265.894 336.814C266.261 336.072 267.32 336.072 267.687 336.814L268.969 339.408C269.115 339.703 269.396 339.907 269.721 339.955L272.572 340.371C273.393 340.49 273.72 341.5 273.124 342.078L271.058 344.084C270.821 344.314 270.713 344.645 270.769 344.97L271.258 347.819C271.398 348.636 270.54 349.259 269.806 348.873L267.257 347.529C266.965 347.375 266.616 347.375 266.324 347.529L263.77 348.875C263.037 349.261 262.18 348.64 262.318 347.823L262.802 344.968C262.857 344.644 262.749 344.314 262.514 344.085L260.452 342.077C259.858 341.499 260.185 340.491 261.005 340.371L263.86 339.955C264.185 339.907 264.466 339.703 264.612 339.408L265.894 336.814Z" fill="#D6DBFA"/>
<path d="M234.894 37.8141C235.261 37.0715 236.32 37.0715 236.687 37.8142L237.969 40.4083C238.115 40.703 238.396 40.9073 238.721 40.9548L241.58 41.3718C242.399 41.4913 242.727 42.4981 242.134 43.0767L240.067 45.0952C239.832 45.325 239.725 45.6559 239.78 45.9801L240.27 48.8251C240.41 49.6414 239.554 50.2647 238.82 49.8805L236.255 48.5373C235.964 48.385 235.617 48.3852 235.326 48.5378L232.773 49.8777C232.039 50.2628 231.183 49.6394 231.323 48.8227L231.812 45.981C231.868 45.6563 231.76 45.3249 231.524 45.0951L229.452 43.0772C228.858 42.499 229.185 41.4909 230.005 41.3713L232.86 40.9548C233.185 40.9073 233.466 40.703 233.612 40.4083L234.894 37.8141Z" fill="#D6DBFA"/>
<path d="M314.693 8.77686C314.142 7.66175 312.551 7.66325 312.002 8.77939L310.73 11.3659C310.657 11.5137 310.516 11.6162 310.353 11.64L307.489 12.0569C306.259 12.236 305.768 13.7484 306.659 14.6159L308.731 16.6332C308.849 16.7482 308.903 16.9139 308.875 17.0762L308.386 19.9179C308.175 21.143 309.461 22.078 310.561 21.5003L313.114 20.1604C313.26 20.0841 313.433 20.0841 313.579 20.1602L316.144 21.5034C317.245 22.0797 318.529 21.1448 318.318 19.9203L317.829 17.0753C317.801 16.9132 317.855 16.7477 317.972 16.6328L320.039 14.6144C320.928 13.7465 320.437 12.2363 319.208 12.057L316.349 11.64C316.186 11.6162 316.046 11.5141 315.973 11.3667L314.693 8.77686Z" fill="#3FC3A2" stroke="white"/>
<path d="M184.985 98.2117C185.352 97.4691 186.411 97.469 186.778 98.2117L188.059 100.805C188.205 101.1 188.487 101.305 188.813 101.351L191.661 101.761C192.482 101.879 192.811 102.888 192.216 103.467L190.148 105.481C189.912 105.711 189.804 106.042 189.86 106.367L190.349 109.216C190.489 110.034 189.631 110.657 188.897 110.27L186.347 108.926C186.056 108.772 185.707 108.772 185.415 108.925L182.853 110.273C182.119 110.659 181.262 110.036 181.402 109.219L181.892 106.366C181.947 106.042 181.84 105.711 181.605 105.481L179.541 103.467C178.948 102.887 179.277 101.879 180.098 101.761L182.949 101.351C183.275 101.305 183.557 101.1 183.703 100.805L184.985 98.2117Z" fill="#D6DBFA"/>
<path d="M260.934 182.877L261.006 183.372L260.934 182.877C259.703 183.056 259.212 184.569 260.103 185.436L262.175 187.453C262.293 187.568 262.347 187.734 262.319 187.896L261.83 190.746C261.62 191.972 262.908 192.906 264.008 192.326L266.558 190.982C266.704 190.905 266.878 190.905 267.024 190.982L269.586 192.329C270.686 192.908 271.973 191.974 271.763 190.748L271.273 187.896C271.245 187.734 271.299 187.568 271.417 187.453L273.489 185.436C274.38 184.569 273.889 183.056 272.659 182.877L269.793 182.46C269.631 182.436 269.49 182.334 269.417 182.187L268.137 179.597C267.586 178.482 265.996 178.483 265.447 179.599L264.174 182.186C264.102 182.334 263.961 182.436 263.798 182.46L260.934 182.877Z" fill="#3FC3A2" stroke="white"/>
<path d="M539.687 178.814C539.32 178.072 538.261 178.072 537.894 178.814L536.612 181.408C536.466 181.703 536.185 181.907 535.86 181.955L533.005 182.371C532.185 182.491 531.858 183.499 532.452 184.077L534.514 186.085C534.749 186.314 534.857 186.644 534.802 186.968L534.318 189.823C534.18 190.64 535.037 191.261 535.77 190.875L538.324 189.529C538.616 189.375 538.965 189.375 539.257 189.529L541.811 190.875C542.544 191.261 543.401 190.64 543.263 189.823L542.779 186.968C542.724 186.644 542.832 186.314 543.067 186.085L545.129 184.077C545.723 183.499 545.396 182.491 544.576 182.371L541.721 181.955C541.396 181.907 541.115 181.703 540.969 181.408L539.687 178.814Z" fill="#D6DBFA"/>
<path d="M437.82 61.6456C437.271 60.5295 435.681 60.528 435.13 61.6431L433.85 64.2329C433.777 64.3803 433.636 64.4824 433.474 64.5062L430.615 64.9232C429.386 65.1025 428.895 66.6127 429.784 67.4806L431.85 69.499C431.968 69.614 432.022 69.7794 431.994 69.9415L431.504 72.7865C431.294 74.011 432.578 74.9459 433.679 74.3696L436.244 73.0264C436.389 72.9503 436.563 72.9503 436.708 73.0266L439.261 74.3665C440.362 74.9442 441.647 74.0092 441.437 72.7841L440.948 69.9424C440.92 69.7801 440.974 69.6144 441.092 69.4994L443.164 67.4821C444.054 66.6147 443.564 65.1022 442.333 64.9231L439.469 64.5062C439.306 64.4825 439.165 64.3799 439.093 64.2321L437.82 61.6456Z" fill="#3FC3A2" stroke="white"/>
<path d="M397.523 16.7255C397.157 15.9814 396.096 15.9804 395.729 16.7239L394.449 19.3135C394.303 19.6083 394.022 19.8127 393.697 19.86L390.831 20.2771C390.011 20.3966 389.684 21.4048 390.278 21.9832L392.35 24.0005C392.586 24.2303 392.693 24.5617 392.637 24.8864L392.148 27.7305C392.008 28.5468 392.864 29.1701 393.598 28.7859L396.163 27.4427C396.454 27.2904 396.801 27.2906 397.092 27.4431L399.645 28.783C400.379 29.1682 401.235 28.5448 401.095 27.7281L400.606 24.8864C400.55 24.5617 400.658 24.2303 400.894 24.0005L402.966 21.9832C403.56 21.4048 403.233 20.3966 402.412 20.2771L399.548 19.8602C399.222 19.8128 398.94 19.6077 398.795 19.312L397.523 16.7255Z" fill="#D6DBFA"/>
<path d="M477.135 203.593C476.585 202.479 474.996 202.479 474.446 203.593L473.164 206.186C473.091 206.333 472.95 206.436 472.787 206.459L469.936 206.869C468.705 207.046 468.212 208.558 469.101 209.427L471.165 211.443C471.283 211.557 471.336 211.722 471.309 211.884L470.825 214.74C470.617 215.965 471.904 216.897 473.003 216.317L475.557 214.971C475.703 214.894 475.878 214.894 476.024 214.971L478.577 216.317C479.677 216.897 480.964 215.965 480.756 214.74L480.272 211.884C480.244 211.722 480.298 211.557 480.416 211.443L482.48 209.427C483.369 208.558 482.876 207.046 481.645 206.869L478.794 206.459C478.631 206.436 478.49 206.333 478.417 206.186L477.135 203.593Z" fill="#3FC3A2" stroke="white"/>
<path d="M419.689 186.818C419.322 186.075 418.261 186.076 417.895 186.82L416.623 189.407C416.478 189.702 416.196 189.907 415.87 189.955L413.006 190.372C412.185 190.491 411.858 191.499 412.452 192.078L414.524 194.095C414.76 194.325 414.868 194.656 414.812 194.981L414.323 197.83C414.183 198.648 415.041 199.271 415.775 198.884L418.325 197.54C418.616 197.386 418.965 197.386 419.257 197.539L421.819 198.887C422.552 199.273 423.41 198.65 423.27 197.833L422.78 194.981C422.725 194.656 422.832 194.325 423.068 194.095L425.14 192.078C425.734 191.499 425.407 190.491 424.587 190.372L421.721 189.955C421.396 189.907 421.115 189.703 420.969 189.408L419.689 186.818Z" fill="#D6DBFA"/>
<g filter="url(#filter0_d)">
<path d="M251.57 137.139C267.901 137.139 281.139 123.901 281.139 107.57C281.139 91.2388 267.901 78 251.57 78C235.239 78 222 91.2388 222 107.57C222 123.901 235.239 137.139 251.57 137.139Z" fill="#E1E5FA"/>
<path d="M251.638 132.727C265.494 132.727 276.727 121.494 276.727 107.638C276.727 93.7818 265.494 82.5492 251.638 82.5492C237.782 82.5492 226.549 93.7818 226.549 107.638C226.549 121.494 237.782 132.727 251.638 132.727Z" fill="white"/>
<path d="M251.865 128.632C263.334 128.632 272.632 119.335 272.632 107.865C272.632 96.3961 263.334 87.0984 251.865 87.0984C240.396 87.0984 231.098 96.3961 231.098 107.865C231.098 119.335 240.396 128.632 251.865 128.632Z" fill="white"/>
<path d="M251.526 129.009C243.338 129.009 235.502 124.312 231.897 116.385C229.52 111.154 229.326 105.308 231.351 99.9287C233.375 94.5493 237.367 90.2731 242.598 87.8961C247.83 85.5192 253.676 85.3259 259.055 87.3502C264.434 89.3746 268.711 93.3665 271.088 98.5981C273.465 103.83 273.658 109.675 271.634 115.055C269.609 120.434 265.617 124.71 260.386 127.087C257.508 128.384 254.495 129.009 251.526 129.009ZM251.481 87.464C248.66 87.464 245.862 88.0667 243.213 89.2609C238.345 91.4672 234.626 95.4478 232.749 100.452C230.873 105.456 231.055 110.892 233.261 115.76C237.822 125.814 249.707 130.272 259.76 125.711C264.628 123.505 268.347 119.524 270.223 114.52C272.1 109.516 271.918 104.08 269.712 99.2122C267.505 94.3446 263.525 90.6257 258.521 88.7491C256.235 87.8961 253.858 87.464 251.481 87.464Z" fill="#2CC6A1"/>
<path d="M263.217 98.4713H239.922C238.818 98.4713 237.922 99.3667 237.922 100.471V114.236C237.922 115.34 238.818 116.236 239.922 116.236H263.217C264.322 116.236 265.217 115.34 265.217 114.236V100.471C265.217 99.3667 264.322 98.4713 263.217 98.4713Z" fill="white" stroke="#BAC4F4" stroke-width="2"/>
<path d="M264.08 99.6086H239.06V106.432H264.08V99.6086Z" fill="#8DE2D2"/>
<path d="M253.477 112.801C253.049 112.781 252.637 112.686 252.24 112.514V111.541C252.467 111.656 252.713 111.753 252.979 111.831C253.244 111.907 253.478 111.945 253.679 111.945C253.845 111.945 253.966 111.926 254.042 111.887C254.12 111.846 254.159 111.778 254.159 111.685C254.159 111.62 254.131 111.565 254.074 111.521C254.02 111.476 253.927 111.425 253.796 111.368C253.667 111.312 253.492 111.243 253.271 111.163C253.023 111.071 252.823 110.969 252.671 110.855C252.519 110.74 252.407 110.612 252.337 110.472C252.269 110.329 252.234 110.152 252.234 109.941C252.234 109.619 252.338 109.367 252.545 109.186C252.752 109.004 253.062 108.892 253.477 108.849V108.447H254.083V108.843C254.472 108.864 254.863 108.96 255.258 109.13L254.909 109.965C254.501 109.781 254.133 109.689 253.805 109.689C253.648 109.689 253.538 109.709 253.474 109.748C253.411 109.785 253.38 109.841 253.38 109.915C253.38 109.979 253.402 110.033 253.447 110.076C253.494 110.117 253.574 110.164 253.688 110.217C253.801 110.268 253.958 110.327 254.159 110.396C254.567 110.54 254.86 110.705 255.038 110.891C255.216 111.074 255.305 111.312 255.305 111.603C255.305 111.931 255.2 112.197 254.991 112.402C254.784 112.607 254.481 112.734 254.083 112.783V113.349H253.477V112.801ZM256.992 112.801C256.564 112.781 256.152 112.686 255.756 112.514V111.541C255.982 111.656 256.229 111.753 256.494 111.831C256.76 111.907 256.993 111.945 257.194 111.945C257.36 111.945 257.481 111.926 257.558 111.887C257.636 111.846 257.675 111.778 257.675 111.685C257.675 111.62 257.646 111.565 257.59 111.521C257.535 111.476 257.442 111.425 257.312 111.368C257.183 111.312 257.008 111.243 256.787 111.163C256.539 111.071 256.339 110.969 256.187 110.855C256.034 110.74 255.923 110.612 255.853 110.472C255.784 110.329 255.75 110.152 255.75 109.941C255.75 109.619 255.854 109.367 256.061 109.186C256.268 109.004 256.578 108.892 256.992 108.849V108.447H257.599V108.843C257.987 108.864 258.379 108.96 258.773 109.13L258.425 109.965C258.017 109.781 257.648 109.689 257.32 109.689C257.164 109.689 257.054 109.709 256.989 109.748C256.927 109.785 256.896 109.841 256.896 109.915C256.896 109.979 256.918 110.033 256.963 110.076C257.01 110.117 257.09 110.164 257.203 110.217C257.316 110.268 257.474 110.327 257.675 110.396C258.083 110.54 258.376 110.705 258.554 110.891C258.731 111.074 258.82 111.312 258.82 111.603C258.82 111.931 258.716 112.197 258.507 112.402C258.3 112.607 257.997 112.734 257.599 112.783V113.349H256.992V112.801ZM260.508 112.801C260.08 112.781 259.668 112.686 259.271 112.514V111.541C259.498 111.656 259.744 111.753 260.01 111.831C260.275 111.907 260.509 111.945 260.71 111.945C260.876 111.945 260.997 111.926 261.073 111.887C261.151 111.846 261.19 111.778 261.19 111.685C261.19 111.62 261.162 111.565 261.105 111.521C261.051 111.476 260.958 111.425 260.827 111.368C260.698 111.312 260.523 111.243 260.303 111.163C260.055 111.071 259.854 110.969 259.702 110.855C259.55 110.74 259.438 110.612 259.368 110.472C259.3 110.329 259.266 110.152 259.266 109.941C259.266 109.619 259.369 109.367 259.576 109.186C259.783 109.004 260.094 108.892 260.508 108.849V108.447H261.114V108.843C261.503 108.864 261.895 108.96 262.289 109.13L261.94 109.965C261.532 109.781 261.164 109.689 260.836 109.689C260.68 109.689 260.569 109.709 260.505 109.748C260.442 109.785 260.411 109.841 260.411 109.915C260.411 109.979 260.434 110.033 260.479 110.076C260.525 110.117 260.605 110.164 260.719 110.217C260.832 110.268 260.989 110.327 261.19 110.396C261.599 110.54 261.892 110.705 262.069 110.891C262.247 111.074 262.336 111.312 262.336 111.603C262.336 111.931 262.231 112.197 262.022 112.402C261.815 112.607 261.513 112.734 261.114 112.783V113.349H260.508V112.801Z" fill="#BAC4F4"/>
</g>
<g filter="url(#filter1_d)">
<path d="M623.922 294.529C646.222 290.789 661.269 269.679 657.529 247.379C653.789 225.078 632.679 210.032 610.379 213.772C588.078 217.511 573.032 238.621 576.772 260.922C580.511 283.222 601.621 298.269 623.922 294.529Z" fill="#E1E5FA"/>
<path d="M623.005 288.488C641.926 285.315 654.692 267.404 651.519 248.482C648.346 229.561 630.435 216.795 611.514 219.968C592.593 223.141 579.826 241.052 582.999 259.973C586.172 278.894 604.083 291.661 623.005 288.488Z" fill="white"/>
<path d="M622.378 282.845C638.039 280.218 648.607 265.392 645.98 249.731C643.354 234.069 628.528 223.502 612.866 226.128C597.204 228.755 586.637 243.58 589.264 259.242C591.89 274.904 606.716 285.471 622.378 282.845Z" fill="white"/>
<path d="M622 283.437C610.819 285.312 599.043 280.693 592.304 270.694C587.86 264.094 586.258 256.156 587.79 248.347C589.322 240.537 593.794 233.784 600.394 229.34C606.994 224.896 614.932 223.293 622.741 224.826C630.551 226.358 637.304 230.83 641.748 237.43C646.192 244.029 647.795 251.967 646.262 259.777C644.73 267.586 640.258 274.34 633.658 278.784C630.026 281.213 626.054 282.757 622 283.437ZM612.424 226.716C608.573 227.361 604.89 228.825 601.545 231.063C595.403 235.19 591.237 241.478 589.82 248.741C588.403 256.004 589.897 263.386 594.024 269.527C602.554 282.212 619.805 285.578 632.489 277.048C638.631 272.92 642.797 266.633 644.214 259.37C645.631 252.107 644.137 244.725 640.01 238.583C635.882 232.442 629.595 228.275 622.332 226.858C619.015 226.217 615.67 226.171 612.424 226.716Z" fill="#2CC6A1"/>
<path d="M630.757 239.095L599.376 244.357C597.749 244.63 596.652 246.172 596.925 247.8L600.004 266.161C600.277 267.79 601.817 268.889 603.444 268.616L634.825 263.353C636.452 263.08 637.55 261.539 637.277 259.91L634.198 241.549C633.924 239.921 632.384 238.822 630.757 239.095Z" fill="white" stroke="#BAC4F4" stroke-width="2"/>
<path d="M632.411 240.414L598.244 246.144L599.807 255.462L633.973 249.732L632.411 240.414Z" fill="#8DE2D2"/>
<path d="M622.182 260.63C621.618 260.698 621.057 260.663 620.5 260.525L620.287 259.25C620.609 259.352 620.952 259.424 621.317 259.468C621.682 259.51 621.996 259.508 622.259 259.464C622.476 259.428 622.631 259.376 622.722 259.308C622.815 259.237 622.851 259.14 622.831 259.017C622.817 258.933 622.767 258.867 622.683 258.821C622.602 258.774 622.469 258.728 622.286 258.682C622.104 258.636 621.86 258.585 621.554 258.529C621.209 258.463 620.924 258.372 620.7 258.257C620.475 258.14 620.301 257.996 620.178 257.828C620.057 257.656 619.974 257.432 619.927 257.155C619.857 256.733 619.937 256.38 620.168 256.096C620.399 255.813 620.781 255.598 621.314 255.45L621.225 254.924L622.019 254.791L622.106 255.31C622.62 255.252 623.154 255.292 623.708 255.428L623.435 256.599C622.86 256.448 622.358 256.408 621.928 256.48C621.723 256.515 621.583 256.564 621.508 256.63C621.434 256.692 621.405 256.772 621.421 256.869C621.436 256.954 621.477 257.019 621.545 257.066C621.615 257.109 621.731 257.153 621.891 257.197C622.05 257.239 622.269 257.282 622.547 257.328C623.114 257.427 623.533 257.579 623.807 257.784C624.08 257.985 624.248 258.277 624.312 258.658C624.385 259.088 624.306 259.46 624.078 259.775C623.852 260.089 623.483 260.322 622.972 260.474L623.097 261.215L622.303 261.348L622.182 260.63ZM626.785 259.858C626.221 259.926 625.66 259.891 625.103 259.753L624.89 258.478C625.212 258.58 625.555 258.652 625.92 258.696C626.284 258.738 626.598 258.737 626.862 258.692C627.079 258.656 627.233 258.604 627.325 258.536C627.418 258.465 627.454 258.368 627.434 258.245C627.419 258.161 627.37 258.095 627.286 258.049C627.205 258.002 627.072 257.956 626.888 257.91C626.707 257.864 626.463 257.813 626.157 257.757C625.812 257.691 625.527 257.6 625.303 257.485C625.078 257.368 624.904 257.225 624.781 257.056C624.66 256.884 624.577 256.66 624.53 256.383C624.46 255.961 624.54 255.608 624.771 255.325C625.002 255.041 625.384 254.826 625.917 254.678L625.828 254.152L626.622 254.019L626.709 254.538C627.223 254.48 627.757 254.52 628.311 254.656L628.038 255.827C627.463 255.676 626.961 255.636 626.531 255.708C626.326 255.743 626.186 255.792 626.11 255.858C626.037 255.92 626.008 256 626.024 256.097C626.039 256.182 626.08 256.247 626.148 256.294C626.218 256.337 626.334 256.381 626.493 256.425C626.653 256.467 626.872 256.51 627.15 256.556C627.716 256.656 628.136 256.808 628.41 257.012C628.683 257.213 628.851 257.505 628.915 257.886C628.987 258.316 628.909 258.688 628.681 259.003C628.455 259.317 628.086 259.55 627.575 259.702L627.7 260.443L626.906 260.576L626.785 259.858ZM631.388 259.086C630.824 259.154 630.263 259.119 629.706 258.981L629.493 257.706C629.814 257.808 630.158 257.88 630.523 257.924C630.887 257.966 631.201 257.965 631.465 257.92C631.682 257.884 631.836 257.832 631.927 257.764C632.021 257.693 632.057 257.596 632.036 257.473C632.022 257.389 631.973 257.323 631.889 257.277C631.808 257.23 631.675 257.184 631.491 257.138C631.31 257.092 631.066 257.041 630.76 256.985C630.415 256.919 630.13 256.828 629.906 256.713C629.681 256.596 629.507 256.453 629.384 256.284C629.263 256.112 629.18 255.888 629.133 255.611C629.062 255.189 629.143 254.836 629.374 254.553C629.605 254.269 629.987 254.054 630.519 253.907L630.431 253.381L631.225 253.247L631.312 253.766C631.826 253.709 632.36 253.748 632.913 253.884L632.64 255.055C632.066 254.904 631.563 254.864 631.134 254.936C630.929 254.971 630.789 255.021 630.713 255.086C630.64 255.148 630.611 255.228 630.627 255.325C630.641 255.41 630.683 255.475 630.751 255.522C630.821 255.565 630.936 255.609 631.096 255.653C631.256 255.695 631.475 255.738 631.753 255.784C632.319 255.884 632.739 256.036 633.013 256.24C633.286 256.441 633.454 256.733 633.518 257.114C633.59 257.544 633.512 257.917 633.284 258.231C633.058 258.545 632.689 258.778 632.178 258.93L632.302 259.671L631.508 259.804L631.388 259.086Z" fill="#BAC4F4"/>
</g>
<g filter="url(#filter2_d)">
<path d="M162.02 193.041C175.839 193.041 187.041 181.839 187.041 168.02C187.041 154.202 175.839 143 162.02 143C148.202 143 137 154.202 137 168.02C137 181.839 148.202 193.041 162.02 193.041Z" fill="#E1E5FA"/>
<path d="M162.02 189.629C173.955 189.629 183.629 179.955 183.629 168.02C183.629 156.086 173.955 146.412 162.02 146.412C150.086 146.412 140.412 156.086 140.412 168.02C140.412 179.955 150.086 189.629 162.02 189.629Z" fill="white"/>
<path d="M162.02 186.217C172.07 186.217 180.217 178.07 180.217 168.02C180.217 157.971 172.07 149.824 162.02 149.824C151.971 149.824 143.824 157.971 143.824 168.02C143.824 178.07 151.971 186.217 162.02 186.217Z" fill="white"/>
<path d="M162.02 186.217C151.991 186.217 143.824 178.05 143.824 168.02C143.824 157.991 151.991 149.824 162.02 149.824C172.05 149.824 180.217 157.991 180.217 168.02C180.217 178.05 172.061 186.217 162.02 186.217ZM162.02 151.708C153.022 151.708 145.708 159.022 145.708 168.02C145.708 177.019 153.022 184.333 162.02 184.333C171.019 184.333 178.333 177.019 178.333 168.02C178.333 159.022 171.019 151.708 162.02 151.708Z" fill="#2CC6A1"/>
<path d="M169.347 162.846L169.683 163.568L170.108 164.032L171.61 167.333L153.335 175.636L151.872 172.423L151.764 171.712L151.438 170.99L151.013 170.526L149.51 167.225L167.785 158.922L169.248 162.134L169.347 162.846Z" fill="white" stroke="#8DE2D2" stroke-width="2"/>
<path d="M174.437 170.961V171.761L174.664 172.354V175.982H151.437V172.443L151.665 171.761V170.961L151.437 170.358V166.74H174.664V170.279L174.437 170.961Z" fill="white" stroke="#BAC4F4" stroke-width="2"/>
</g>
<g filter="url(#filter3_d)">
<path d="M459.955 153.847C471.321 148.497 476.197 134.946 470.847 123.58C465.497 112.214 451.946 107.337 440.58 112.688C429.214 118.038 424.337 131.589 429.688 142.955C435.038 154.321 448.589 159.197 459.955 153.847Z" fill="#E1E5FA"/>
<path d="M458.634 151.041C468.45 146.42 472.662 134.717 468.041 124.901C463.42 115.085 451.717 110.873 441.901 115.494C432.085 120.115 427.873 131.818 432.494 141.634C437.115 151.45 448.818 155.661 458.634 151.041Z" fill="white"/>
<path d="M457.313 148.234C465.579 144.343 469.126 134.488 465.235 126.222C461.343 117.956 451.488 114.409 443.222 118.3C434.956 122.191 431.409 132.047 435.3 140.313C439.191 148.579 449.047 152.126 457.313 148.234Z" fill="white"/>
<path d="M457.313 148.234C449.064 152.118 439.184 148.562 435.3 140.313C431.417 132.064 434.973 122.183 443.222 118.3C451.471 114.417 461.351 117.973 465.235 126.222C469.118 134.471 465.571 144.347 457.313 148.234ZM443.951 119.85C436.55 123.334 433.366 132.182 436.85 139.583C440.334 146.985 449.182 150.169 456.584 146.685C463.985 143.201 467.169 134.353 463.685 126.951C460.201 119.55 451.353 116.366 443.951 119.85Z" fill="#2CC6A1"/>
<path d="M454.29 126.175L454.846 126.638L455.375 126.855L457.889 128.989L446.072 142.894L443.625 140.818L443.26 140.275L442.712 139.808L442.183 139.59L439.669 137.456L451.486 123.552L453.933 125.627L454.29 126.175Z" fill="white" stroke="#8DE2D2" stroke-width="2"/>
<path d="M461.618 130.878L461.928 131.537L462.345 131.936L463.749 134.92L444.645 143.913L443.275 141.003L443.198 140.354L442.888 139.695L442.467 139.287L441.067 136.312L460.171 127.319L461.541 130.229L461.618 130.878Z" fill="white" stroke="#BAC4F4" stroke-width="2"/>
</g>
<g filter="url(#filter4_d)">
<path d="M115.485 299.97C136.188 299.97 152.97 283.188 152.97 262.485C152.97 241.783 136.188 225 115.485 225C94.7827 225 78 241.783 78 262.485C78 283.188 94.7827 299.97 115.485 299.97Z" fill="#E1E5FA"/>
<path d="M115.485 294.284C133.047 294.284 147.284 280.047 147.284 262.485C147.284 244.923 133.047 230.686 115.485 230.686C97.9232 230.686 83.6864 244.923 83.6864 262.485C83.6864 280.047 97.9232 294.284 115.485 294.284Z" fill="white"/>
<path d="M115.485 289.325C130.308 289.325 142.325 277.309 142.325 262.485C142.325 247.662 130.308 235.645 115.485 235.645C100.662 235.645 88.6448 247.662 88.6448 262.485C88.6448 277.309 100.662 289.325 115.485 289.325Z" fill="white"/>
<path d="M115.531 290.087C114.587 290.087 113.631 290.042 112.676 289.939C97.5386 288.393 86.4727 274.825 88.0194 259.676C89.5661 244.539 103.134 233.473 118.283 235.02C133.42 236.566 144.486 250.134 142.939 265.283C142.189 272.618 138.629 279.226 132.92 283.878C127.95 287.926 121.865 290.087 115.531 290.087ZM115.462 236.407C102.258 236.407 90.9081 246.427 89.5434 259.835C88.0877 274.142 98.5394 286.96 112.835 288.427C119.761 289.132 126.551 287.096 131.953 282.695C137.355 278.294 140.71 272.061 141.427 265.124C142.882 250.817 132.431 237.999 118.135 236.532C117.237 236.453 116.349 236.407 115.462 236.407Z" fill="#2CC6A1"/>
<path d="M126.903 281.08L100.541 278.396L103.225 252.033L129.587 254.717L126.903 281.08ZM101.439 277.657L126.176 280.181L128.7 255.445L103.964 252.92L101.439 277.657Z" fill="#BAC4F4" stroke="#BAC4F4"/>
<path d="M126.312 254.911L118.146 254.081L118.624 249.361C118.624 249.361 120.83 246.267 123.89 246.222C127.427 246.176 127.222 246.563 127.222 246.563L126.312 254.911Z" fill="#00D7AF"/>
<path d="M127.688 254.717L118.635 253.796L119.113 249.076C119.113 249.076 121.365 247.507 124.754 247.507C128.666 247.496 128.439 247.882 128.439 247.882L127.688 254.717Z" fill="#8DE2D2"/>
<path d="M106.466 252.761L114.37 253.569L114.848 248.849C114.848 248.849 113.369 245.38 110.481 244.732C107.137 243.981 107.262 244.402 107.262 244.402L106.466 252.761Z" fill="#00D7AF"/>
<path d="M104.885 252.386L113.938 253.307L114.416 248.587C114.416 248.587 112.528 246.597 109.207 245.903C105.374 245.107 105.522 245.528 105.522 245.528L104.885 252.386Z" fill="#8DE2D2"/>
<path d="M117.43 253.546L115.053 253.307C114.154 253.216 113.506 252.42 113.597 251.522L113.756 249.918C113.847 249.02 114.643 248.371 115.542 248.462L117.919 248.701C118.817 248.792 119.466 249.588 119.375 250.487L119.215 252.09C119.124 252.989 118.328 253.637 117.43 253.546Z" fill="#00D7AF"/>
<path d="M130.878 255.253L101.858 252.292L101.206 258.685L130.226 261.646L130.878 255.253Z" fill="white"/>
<path d="M130.599 262.087L100.757 259.039L101.496 251.84L131.339 254.888L130.599 262.087ZM101.655 258.311L129.872 261.189L130.44 255.616L102.224 252.738L101.655 258.311Z" fill="#BAC4F4" stroke="#BAC4F4"/>
<path d="M119.039 253.71L113.427 253.138L110.827 278.616L116.439 279.189L119.039 253.71Z" fill="#8DE2D2"/>
</g>
<g filter="url(#filter5_d)">
<path d="M255.1 272.2C268.962 272.2 280.2 260.962 280.2 247.1C280.2 233.238 268.962 222 255.1 222C241.238 222 230 233.238 230 247.1C230 260.962 241.238 272.2 255.1 272.2Z" fill="#E1E5FA"/>
<path d="M255.009 266.332C265.681 266.332 274.332 257.681 274.332 247.009C274.332 236.337 265.681 227.686 255.009 227.686C244.338 227.686 235.687 236.337 235.687 247.009C235.687 257.681 244.338 266.332 255.009 266.332Z" fill="white"/>
<path d="M254.281 262.601C262.667 262.601 269.464 255.804 269.464 247.419C269.464 239.033 262.667 232.236 254.281 232.236C245.896 232.236 239.098 239.033 239.098 247.419C239.098 255.804 245.896 262.601 254.281 262.601Z" fill="white"/>
<path d="M255.133 263.124C250.22 263.124 245.364 260.872 242.236 256.63C239.7 253.184 238.642 248.964 239.279 244.734C239.916 240.503 242.157 236.773 245.603 234.236C249.037 231.7 253.268 230.642 257.499 231.279C261.73 231.916 265.46 234.157 267.996 237.603C270.532 241.049 271.59 245.268 270.953 249.499C270.316 253.73 268.076 257.46 264.63 259.996C261.775 262.1 258.443 263.124 255.133 263.124ZM255.088 232.758C252.04 232.758 249.083 233.725 246.592 235.567C243.51 237.842 241.497 241.185 240.928 244.972C240.36 248.76 241.292 252.547 243.578 255.64C248.275 262.009 257.283 263.362 263.652 258.665C266.734 256.391 268.747 253.047 269.315 249.26C269.884 245.473 268.951 241.686 266.665 238.592C264.391 235.51 261.047 233.497 257.26 232.928C256.532 232.815 255.804 232.758 255.088 232.758Z" fill="#2CC6A1"/>
<path d="M254.532 245.904C254.915 245.764 255.307 245.643 255.699 245.531C256.092 245.418 256.484 245.362 256.858 245.362C257.241 245.362 257.605 245.446 257.951 245.605C258.306 245.764 258.633 246.044 258.932 246.455C259.221 246.857 259.436 247.277 259.567 247.726C259.698 248.174 259.726 248.632 259.669 249.09C259.613 249.547 259.455 250.005 259.202 250.444C258.95 250.892 258.605 251.303 258.147 251.686L258.847 252.798C258.913 252.891 258.932 253.004 258.922 253.134C258.913 253.265 258.847 253.368 258.735 253.452L258.212 253.844L257.259 252.322C256.699 252.639 256.12 252.863 255.513 252.976C254.915 253.088 254.336 253.106 253.785 253.022L253.728 252.06C253.728 251.976 253.747 251.892 253.775 251.808C253.813 251.724 253.869 251.658 253.943 251.602C254.037 251.537 254.158 251.5 254.326 251.49C254.485 251.481 254.681 251.481 254.896 251.472C255.111 251.462 255.354 251.434 255.625 251.378C255.896 251.331 256.176 251.229 256.475 251.07L254.364 247.707C253.99 247.838 253.607 247.959 253.224 248.062C252.841 248.165 252.458 248.211 252.075 248.193C251.692 248.174 251.328 248.081 250.963 247.894C250.599 247.716 250.263 247.408 249.936 246.969C249.693 246.642 249.525 246.278 249.422 245.867C249.319 245.465 249.31 245.045 249.375 244.615C249.441 244.185 249.6 243.765 249.852 243.345C250.104 242.924 250.45 242.523 250.907 242.158L250.319 241.234C250.254 241.131 250.226 241.019 250.244 240.897C250.263 240.776 250.319 240.664 250.431 240.589L250.954 240.197L251.804 241.561C252.309 241.29 252.804 241.121 253.28 241.056C253.756 240.991 254.205 240.991 254.635 241.056L254.681 241.831C254.7 242.056 254.635 242.224 254.494 242.327C254.429 242.373 254.336 242.411 254.205 242.429C254.083 242.448 253.934 242.467 253.766 242.495C253.598 242.513 253.411 242.551 253.215 242.597C253.009 242.644 252.804 242.719 252.589 242.822L254.532 245.904ZM251.701 243.447C251.459 243.672 251.272 243.887 251.141 244.111C251.01 244.335 250.926 244.54 250.889 244.746C250.851 244.951 250.861 245.148 250.907 245.334C250.954 245.521 251.038 245.699 251.16 245.857C251.3 246.044 251.449 246.175 251.617 246.269C251.785 246.362 251.972 246.418 252.159 246.437C252.355 246.455 252.561 246.455 252.776 246.418C252.99 246.381 253.224 246.334 253.458 246.269L251.701 243.447ZM257.353 250.435C257.829 249.986 258.1 249.529 258.156 249.043C258.222 248.566 258.091 248.099 257.764 247.66C257.624 247.474 257.465 247.333 257.297 247.249C257.119 247.165 256.942 247.109 256.736 247.091C256.54 247.072 256.325 247.091 256.101 247.137C255.877 247.184 255.643 247.249 255.401 247.324L257.353 250.435Z" fill="#BAC4F4" stroke="#BAC4F4"/>
</g>
<g filter="url(#filter6_d)">
<path d="M497.762 345.532C510.309 354.975 528.135 352.458 537.577 339.911C547.019 327.365 544.503 309.539 531.956 300.097C519.409 290.655 501.584 293.171 492.141 305.718C482.699 318.264 485.216 336.09 497.762 345.532Z" fill="#E1E5FA"/>
<path d="M501.677 340.159C511.336 347.428 525.058 345.491 532.327 335.832C539.596 326.173 537.659 312.451 528 305.182C518.341 297.913 504.619 299.85 497.35 309.509C490.081 319.167 492.018 332.89 501.677 340.159Z" fill="white"/>
<path d="M503.559 336.287C511.149 341.999 521.931 340.476 527.643 332.887C533.354 325.297 531.832 314.515 524.243 308.803C516.653 303.092 505.871 304.614 500.159 312.203C494.448 319.793 495.97 330.575 503.559 336.287Z" fill="white"/>
<path d="M503.975 337.34C499.528 333.993 496.666 328.647 496.725 322.678C496.777 317.831 498.694 313.292 502.152 309.896C505.61 306.501 510.179 304.651 515.025 304.703C519.861 304.747 524.411 306.671 527.806 310.129C531.202 313.588 533.052 318.156 533 323.003C532.948 327.849 531.032 332.388 527.573 335.784C524.115 339.179 519.547 341.029 514.7 340.978C510.683 340.937 506.97 339.594 503.975 337.34ZM524.617 309.825C521.858 307.749 518.524 306.61 515.014 306.581C510.676 306.54 506.576 308.195 503.482 311.236C500.387 314.276 498.652 318.339 498.614 322.696C498.527 331.66 505.757 339.02 514.721 339.107C519.06 339.148 523.16 337.493 526.254 334.452C529.348 331.412 531.084 327.349 531.122 322.992C531.162 318.653 529.507 314.554 526.467 311.459C525.886 310.861 525.266 310.313 524.617 309.825Z" fill="#2CC6A1"/>
<path d="M515.159 321.345C515.601 321.479 516.039 321.637 516.47 321.802C516.902 321.968 517.295 322.185 517.633 322.439C517.98 322.7 518.252 323.024 518.457 323.403C518.67 323.789 518.775 324.265 518.766 324.841C518.754 325.402 518.662 325.928 518.475 326.423C518.288 326.918 518.002 327.352 517.639 327.728C517.277 328.104 516.821 328.41 516.294 328.635C515.76 328.87 515.168 329.006 514.493 329.041L514.369 330.524C514.365 330.653 514.306 330.768 514.208 330.88C514.11 330.992 513.981 331.04 513.823 331.04L513.082 331.039L513.257 329.011C512.533 328.917 511.856 328.726 511.23 328.413C510.613 328.108 510.076 327.73 509.634 327.279L510.239 326.37C510.296 326.293 510.37 326.23 510.453 326.173C510.544 326.122 510.639 326.101 510.745 326.102C510.874 326.106 511.01 326.155 511.168 326.261C511.318 326.361 511.496 326.494 511.697 326.632C511.897 326.77 512.136 326.91 512.42 327.044C512.697 327.186 513.02 327.284 513.399 327.344L513.779 322.862C513.352 322.726 512.922 322.575 512.506 322.407C512.089 322.24 511.711 322.021 511.377 321.743C511.043 321.465 510.777 321.133 510.574 320.715C510.365 320.307 510.271 319.799 510.274 319.179C510.277 318.717 510.373 318.273 510.56 317.831C510.74 317.397 511.018 317.011 511.37 316.666C511.722 316.322 512.152 316.05 512.667 315.841C513.181 315.632 513.768 315.504 514.43 315.486L514.527 314.248C514.538 314.111 514.589 313.99 514.689 313.893C514.789 313.796 514.916 313.733 515.068 313.741L515.809 313.742L515.649 315.556C516.29 315.654 516.853 315.839 517.328 316.105C517.804 316.37 518.21 316.675 518.554 317.027L518.069 317.761C517.933 317.976 517.759 318.084 517.562 318.082C517.471 318.079 517.361 318.05 517.23 317.977C517.108 317.912 516.96 317.827 516.788 317.737C516.623 317.64 516.429 317.546 516.219 317.455C516.002 317.357 515.765 317.285 515.5 317.232L515.159 321.345ZM514.271 317.194C513.898 317.231 513.583 317.298 513.312 317.412C513.041 317.526 512.825 317.655 512.651 317.815C512.477 317.976 512.352 318.16 512.267 318.361C512.182 318.562 512.137 318.779 512.139 319.006C512.138 319.27 512.185 319.491 512.273 319.69C512.362 319.889 512.493 320.067 512.649 320.211C512.814 320.361 513 320.501 513.22 320.614C513.44 320.727 513.683 320.843 513.939 320.943L514.271 317.194ZM514.626 327.367C515.363 327.286 515.92 327.056 516.302 326.655C516.685 326.268 516.885 325.756 516.888 325.136C516.889 324.872 516.84 324.637 516.745 324.446C516.642 324.249 516.52 324.077 516.346 323.921C516.182 323.77 515.974 323.641 515.74 323.53C515.505 323.42 515.249 323.32 514.978 323.222L514.626 327.367Z" fill="#BAC4F4" stroke="#BAC4F4"/>
</g>
<path d="M605.07 159.63C604.335 158.145 602.216 158.146 601.483 159.632L598.713 165.247C598.422 165.838 597.859 166.247 597.207 166.342L591.005 167.245C589.366 167.483 588.711 169.498 589.896 170.655L594.38 175.032C594.851 175.492 595.065 176.153 594.954 176.802L593.895 182.975C593.614 184.609 595.329 185.855 596.796 185.084L602.344 182.169C602.927 181.863 603.623 181.863 604.205 182.169L609.753 185.084C611.22 185.855 612.935 184.609 612.655 182.975L611.596 176.802C611.484 176.154 611.699 175.492 612.171 175.032L616.66 170.655C617.847 169.499 617.192 167.483 615.552 167.244L609.352 166.341C608.701 166.247 608.139 165.838 607.847 165.249L605.07 159.63Z" fill="#D6DBFA"/>
<path d="M605.463 328.815C605.096 328.072 604.037 328.071 603.67 328.813L600.91 334.388C600.765 334.683 600.483 334.887 600.158 334.934L594.005 335.829C593.185 335.949 592.857 336.957 593.451 337.535L597.902 341.873C598.137 342.103 598.245 342.433 598.189 342.758L597.141 348.887C597.001 349.704 597.858 350.327 598.592 349.941L604.101 347.045C604.393 346.892 604.741 346.892 605.033 347.045L610.527 349.938C611.261 350.324 612.12 349.7 611.979 348.883L610.923 342.758C610.867 342.434 610.975 342.102 611.21 341.872L615.661 337.535C616.254 336.956 615.927 335.949 615.107 335.829L608.965 334.934C608.64 334.887 608.358 334.682 608.213 334.387L605.463 328.815Z" fill="#D6DBFA"/>
<path d="M512.451 127.815C512.085 127.072 511.026 127.071 510.658 127.813L507.899 133.388C507.753 133.683 507.472 133.887 507.147 133.934L501.004 134.829C500.184 134.949 499.857 135.956 500.451 136.535L504.901 140.872C505.137 141.102 505.244 141.434 505.188 141.758L504.133 147.885C503.992 148.702 504.849 149.325 505.583 148.94L511.09 146.045C511.382 145.892 511.73 145.892 512.021 146.045L517.519 148.939C518.252 149.325 519.11 148.703 518.97 147.886L517.922 141.758C517.867 141.433 517.974 141.103 518.21 140.873L522.661 136.535C523.254 135.957 522.927 134.949 522.107 134.829L515.954 133.934C515.628 133.887 515.347 133.682 515.201 133.387L512.451 127.815Z" fill="#3FC3A2"/>
<path d="M185.933 287.335L185.988 287.711L185.933 287.335C184.703 287.514 184.212 289.026 185.102 289.893L189.552 294.23C189.67 294.345 189.724 294.511 189.696 294.673L188.64 300.8C188.429 302.025 189.715 302.961 190.816 302.382L196.323 299.488C196.468 299.411 196.643 299.411 196.788 299.488L202.286 302.382C203.386 302.961 204.673 302.027 204.463 300.801L203.415 294.673C203.387 294.511 203.441 294.346 203.559 294.231L208.01 289.893C208.9 289.026 208.409 287.514 207.179 287.335L201.026 286.44C200.863 286.416 200.722 286.314 200.65 286.166L197.901 280.596C197.351 279.481 195.761 279.481 195.211 280.596L192.462 286.166C192.389 286.314 192.248 286.416 192.085 286.44L185.933 287.335Z" fill="#3FC3A2" stroke="white"/>
<path d="M64.659 308.817C65.0258 308.074 66.0857 308.074 66.4525 308.817L69.2013 314.387C69.3469 314.682 69.6284 314.887 69.9541 314.934L76.1066 315.829C76.9268 315.949 77.2541 316.957 76.6606 317.535L72.2099 321.873C71.9743 322.103 71.8667 322.433 71.9222 322.758L72.9704 328.886C73.1102 329.703 72.2524 330.325 71.5189 329.939L66.0215 327.045C65.73 326.892 65.3815 326.892 65.0899 327.045L59.5925 329.939C58.8591 330.325 58.0013 329.703 58.141 328.886L59.1893 322.758C59.2447 322.433 59.1371 322.103 58.9015 321.873L54.4508 317.535C53.8573 316.957 54.1847 315.949 55.0049 315.829L61.1574 314.934C61.483 314.887 61.7645 314.682 61.9102 314.387L64.659 308.817Z" fill="#D6DBFA"/>
<path d="M526.825 245.962L523.787 242L512 251.037L515.037 254.999L526.825 245.962Z" fill="#E1E5FA"/>
<path d="M118.704 188.754L117.187 185L106 189.523L107.517 193.276L118.704 188.754Z" fill="#E1E5FA"/>
<path d="M416.044 331.767L418.819 325C418.819 325 424.324 330.152 427.474 331.539C430.625 332.927 438.984 333.28 438.984 333.28L436.209 340.046C436.209 340.046 429.339 340.206 424.574 338.249C419.809 336.293 416.044 331.767 416.044 331.767Z" fill="#E1E5FA"/>
<path d="M288.434 298.169L286 293.245C286 293.245 291.63 292.71 293.972 291.618C296.315 290.526 300.66 286 300.66 286L303.094 290.924C303.094 290.924 299.784 294.871 296.315 296.588C292.847 298.294 288.434 298.169 288.434 298.169Z" fill="#E1E5FA"/>
<path d="M212.024 214.111L210 210.016C210 210.016 214.674 209.573 216.619 208.663C218.564 207.753 222.169 204 222.169 204L224.193 208.094C224.193 208.094 221.441 211.37 218.564 212.803C215.698 214.213 212.024 214.111 212.024 214.111Z" fill="#E1E5FA"/>
<path d="M184.061 351.216L181.764 346.564C181.764 346.564 187.087 346.052 189.293 345.029C191.499 344.005 195.616 339.717 195.616 339.717L197.914 344.369C197.914 344.369 194.786 348.099 191.511 349.726C188.235 351.341 184.061 351.216 184.061 351.216Z" fill="#E1E5FA"/>
<g filter="url(#filter7_d)">
<path d="M429.578 288.078C444.809 296.871 464.284 291.653 473.078 276.422C481.871 261.191 476.653 241.716 461.422 232.922C446.191 224.129 426.716 229.347 417.922 244.578C409.129 259.809 414.347 279.284 429.578 288.078Z" fill="#E1E5FA"/>
<path d="M431.993 283.894C444.914 291.354 461.435 286.927 468.895 274.007C476.354 261.086 471.927 244.565 459.007 237.106C446.087 229.646 429.565 234.073 422.106 246.993C414.646 259.914 419.073 276.435 431.993 283.894Z" fill="white"/>
<path d="M434.1 280.246C445.005 286.543 458.95 282.806 465.246 271.9C471.543 260.995 467.806 247.05 456.901 240.754C445.995 234.457 432.05 238.194 425.754 249.099C419.457 260.005 423.194 273.95 434.1 280.246Z" fill="white"/>
<path d="M433.809 280.826C433.115 280.425 432.431 279.986 431.772 279.505C421.293 271.937 418.914 257.255 426.487 246.767C434.055 236.288 448.737 233.909 459.225 241.482C469.704 249.05 472.082 263.732 464.51 274.22C460.842 279.298 455.416 282.647 449.24 283.644C443.864 284.512 438.47 283.517 433.809 280.826ZM456.56 241.305C446.846 235.696 434.24 238.246 427.54 247.532C420.392 257.439 422.637 271.308 432.532 278.46C437.328 281.92 443.188 283.307 449.032 282.363C454.875 281.42 459.991 278.26 463.465 273.46C470.613 263.553 468.368 249.683 458.473 242.532C457.846 242.092 457.213 241.681 456.56 241.305Z" fill="#2CC6A1"/>
<path d="M446.003 279.03L427.748 265.858L440.92 247.603L459.175 260.775L446.003 279.03ZM428.723 265.696L445.849 278.06L458.213 260.934L441.087 248.57L428.723 265.696Z" fill="#BAC4F4" stroke="#BAC4F4"/>
<path d="M456.683 259.526L451.028 255.447L453.384 252.177C453.384 252.177 456.321 250.839 458.591 252.105C461.213 253.574 460.898 253.771 460.898 253.771L456.683 259.526Z" fill="#00D7AF"/>
<path d="M457.778 259.969L451.509 255.446L453.865 252.176C453.865 252.176 456.188 251.978 458.682 253.418C461.565 255.071 461.233 255.259 461.233 255.259L457.778 259.969Z" fill="#8DE2D2"/>
<path d="M442.995 249.515L448.467 253.467L450.823 250.197C450.823 250.197 451.209 247.017 449.359 245.313C447.218 243.341 447.131 243.704 447.131 243.704L442.995 249.515Z" fill="#00D7AF"/>
<path d="M441.992 248.568L448.26 253.091L450.617 249.821C450.617 249.821 450.073 247.555 447.925 245.634C445.443 243.42 445.373 243.793 445.373 243.793L441.992 248.568Z" fill="#8DE2D2"/>
<path d="M450.728 254.749L449.081 253.564C448.458 253.116 448.32 252.255 448.768 251.632L449.566 250.52C450.015 249.898 450.876 249.759 451.498 250.207L453.146 251.393C453.768 251.841 453.907 252.702 453.458 253.325L452.66 254.437C452.211 255.059 451.35 255.198 450.728 254.749Z" fill="#00D7AF"/>
<path d="M459.897 261.718L439.804 247.213L436.609 251.639L456.702 266.143L459.897 261.718Z" fill="white"/>
<path d="M456.789 266.627L436.128 251.709L439.73 246.726L460.391 261.645L456.789 266.627ZM437.099 251.555L456.635 265.657L459.421 261.799L439.884 247.697L437.099 251.555Z" fill="#BAC4F4" stroke="#BAC4F4"/>
<path d="M451.842 255.554L447.957 252.749L435.222 270.389L439.107 273.194L451.842 255.554Z" fill="#8DE2D2"/>
</g>
<mask id="mask0" mask-type="alpha" maskUnits="userSpaceOnUse" x="259" y="20" width="193" height="363">
<rect x="259.044" y="20" width="192" height="363" fill="#C4C4C4"/>
</mask>
<g mask="url(#mask0)">
<path d="M399.718 89.9501C399.718 117.423 381.243 137.522 353.77 137.522C346.454 137.522 326.728 160.27 320.471 163.851C305.061 172.657 304.835 155.694 304.418 138.137C304.023 121.342 304.023 92.6337 304.023 90.4938C304.023 63.0212 324.68 40.7889 355.585 40.7889C383.065 40.7889 399.718 62.4774 399.718 89.9501Z" fill="#02065A"/>
<path d="M333.897 48.4868C342.986 44.094 355.946 44.3271 355.946 44.3271C355.946 44.3271 340.458 50.7185 335.74 57.0394C331.503 62.7175 336.065 70.3307 333.897 70.3307C328.127 70.3307 323.763 67.5058 322.781 67.1032C321.799 66.6936 318.897 65.7755 318.897 65.7755C318.897 65.7755 313.925 71.2559 312.314 75.5357C311.509 77.6756 309.617 83.2266 309.617 83.2266H307.533C307.533 83.2266 308.797 77.266 310.605 72.1034C311.891 68.4451 316.185 62.2726 317.752 60.5282C321.538 56.2978 324.808 52.8796 333.897 48.4868Z" fill="#2B2F86"/>
<path d="M401.491 97.3514C401.491 100.946 398.574 103.863 394.979 103.863C392.79 103.863 391.886 103.764 391.886 103.764C391.886 103.764 391.526 104.689 390.926 106.398C385.332 122.246 370.219 133.596 352.45 133.596C334.787 133.596 319.744 122.366 314.073 106.66C313.607 105.374 313.063 103.701 313.063 103.701C313.063 103.701 310.506 103.863 308.345 103.863C304.751 103.863 301.834 100.946 301.834 97.3514C301.834 93.7567 304.751 90.8399 308.345 90.8399C310.047 90.8399 311.658 90.8399 311.658 90.8399C311.658 90.8399 311.672 89.9006 311.693 89.4133C311.792 87.0333 312.088 86.3765 312.583 84.1165C314.447 75.5075 319.836 69.6458 319.836 69.6458C319.836 69.6458 352.323 81.4046 368.397 83.2126C384.887 85.07 392.084 83.6363 392.084 83.6363C392.084 83.6363 393.051 87.2099 393.171 89.3215C393.214 90.0913 393.214 90.8399 393.214 90.8399C393.214 90.8399 393.256 90.8399 394.979 90.8399C398.574 90.8399 401.491 93.7496 401.491 97.3514Z" fill="#D9DDFC"/>
<path d="M334.144 101.532C332.661 101.532 331.446 100.318 331.446 98.8345V93.5307C331.446 92.0476 332.661 90.8329 334.144 90.8329C335.627 90.8329 336.842 92.0476 336.842 93.5307V98.8345C336.842 100.325 335.627 101.532 334.144 101.532Z" fill="#02065A"/>
<path d="M371.094 101.532C369.611 101.532 368.396 100.318 368.396 98.8345V93.5307C368.396 92.0476 369.611 90.8329 371.094 90.8329C372.577 90.8329 373.792 92.0476 373.792 93.5307V98.8345C373.792 100.325 372.577 101.532 371.094 101.532Z" fill="#02065A"/>
<path d="M377.719 381.538C377.719 382.646 376.818 383.543 375.71 383.538L361.544 383.478C360.444 383.473 359.554 382.58 359.553 381.48L359.422 256.035C359.421 254.931 358.526 254.037 357.422 254.037H345.445C344.34 254.037 343.445 254.932 343.445 256.037L343.411 381.548C343.41 382.652 342.515 383.547 341.411 383.547H328.312C327.207 383.547 326.312 382.652 326.312 381.547V229.108C326.312 228.004 327.207 227.108 328.312 227.108H375.719C376.824 227.108 377.719 228.004 377.719 229.108V381.538Z" fill="#484FF5"/>
<path d="M374.315 375.195V238.891C374.315 237.331 373.05 236.066 371.49 236.066C369.93 236.066 368.665 237.331 368.665 238.891V375.195C368.665 376.755 369.93 378.02 371.49 378.02C373.05 378.02 374.315 376.755 374.315 375.195Z" fill="#5E62F6"/>
<path d="M344.236 372.764L333.565 372.68C333.565 372.68 323.296 367.107 318.642 371.769C315.267 375.144 316.107 383.076 316.107 383.076H344.236V372.764Z" fill="#EC5C8C"/>
<path d="M358.756 372.764L369.428 372.68C369.428 372.68 379.696 367.107 384.35 371.769C387.726 375.144 386.886 383.076 386.886 383.076H358.756V372.764Z" fill="#EC5C8C"/>
<path d="M342.492 381.359H317.759C317.759 381.359 316.975 378.619 318.416 377.56C319.85 376.5 342.499 377.56 342.499 377.56V381.359H342.492Z" fill="#ED86A8"/>
<path d="M360.395 381.359H385.127C385.127 381.359 385.911 378.619 384.471 377.56C383.037 376.5 360.388 377.56 360.388 377.56V381.359H360.395Z" fill="#ED86A8"/>
<path d="M331.75 92.3654V95.494C331.75 95.494 330.705 94.6536 330.133 94.0886C329.561 93.5236 329.356 92.8315 328.939 92.0829C328.523 91.3413 328.289 89.9783 328.883 90.6704C329.264 91.1154 329.766 91.6662 330.366 92.2665C330.895 92.8033 331.75 92.3654 331.75 92.3654Z" fill="#02065A"/>
<path d="M373.1 92.3654V95.494C373.1 95.494 374.145 94.6536 374.717 94.0886C375.289 93.5236 375.494 92.8315 375.911 92.0829C376.328 91.3413 376.561 89.9783 375.967 90.6704C375.586 91.1154 375.085 91.6662 374.484 92.2665C373.948 92.8033 373.1 92.3654 373.1 92.3654Z" fill="#02065A"/>
<path d="M397.832 168.582C404.965 166.217 400.643 153.928 395.657 138.906C390.671 123.885 388.305 116.759 388.305 116.759L373.905 121.109L383.863 152.742" fill="#63D4C8"/>
<path d="M352.358 126.731C346.644 126.731 339.9 122.712 338.381 119.421C337.83 118.235 337.922 116.865 338.628 115.763C339.335 114.661 340.535 114.005 341.849 114.005H362.866C364.173 114.005 365.381 114.661 366.087 115.763C366.793 116.865 366.885 118.235 366.334 119.421C364.816 122.712 358.071 126.731 352.358 126.731ZM341.849 116.123C341.256 116.123 340.733 116.406 340.415 116.907C340.097 117.409 340.055 118.002 340.302 118.539C341.531 121.194 347.591 124.619 352.358 124.619C357.118 124.619 363.184 121.194 364.413 118.539C364.66 118.002 364.618 117.409 364.3 116.907C363.982 116.406 363.46 116.123 362.866 116.123H341.849Z" fill="#02065A"/>
<path d="M340.726 136.993C334.871 136.993 330.224 137.974 326.531 139.782C312.307 146.753 303.62 162.036 304.524 166.252C305.909 172.693 330.132 165.56 330.132 165.56C330.132 165.56 331.361 195.843 331.277 204.375C331.216 210.88 327.565 223.917 326.528 227.495C326.377 228.016 326.667 228.555 327.186 228.712C330.45 229.7 341.73 232.877 352.033 232.914C362.329 232.951 373.6 229.728 376.872 228.72C377.394 228.559 377.682 228.012 377.523 227.49C376.455 223.985 372.789 211.479 372.789 205.053C372.789 196.564 375.6 166.986 375.6 166.986C375.6 166.986 397.366 171.923 399.711 167.142C402.875 160.673 388.503 144.952 380.155 140.969C376.603 139.274 369.745 136.985 364.237 136.985C364.23 136.993 340.747 136.993 340.726 136.993Z" fill="#63D4C8"/>
<path d="M364.809 131.668C364.809 131.668 365.43 143.772 363.185 149.069C361.193 153.759 355.593 156.534 352.323 156.534C348.799 156.534 343.904 154.867 341.341 149.613C338.841 144.493 340.218 131.752 340.218 131.752C340.218 131.752 347.379 133.596 351.673 133.596C355.953 133.596 364.809 131.668 364.809 131.668Z" fill="#D9DDFC"/>
<path d="M307.364 168.477C300.231 166.111 304.27 153.928 309.263 138.899C314.256 123.871 316.615 116.752 316.615 116.752L331.015 121.102L321.058 152.735" fill="#63D4C8"/>
<g filter="url(#filter8_d)">
<path d="M327.83 115.064C331.269 119.005 333.741 122.366 329.8 125.813C325.86 129.252 319.878 128.85 316.431 124.909C312.992 120.968 311.177 112.726 315.118 109.28C319.059 105.833 324.391 111.123 327.83 115.064Z" fill="#D9DDFC"/>
</g>
<g filter="url(#filter9_d)">
<path d="M377.084 115.064C373.644 119.005 371.172 122.366 375.113 125.813C379.054 129.252 385.036 128.85 388.482 124.909C391.922 120.968 393.737 112.726 389.796 109.28C385.855 105.833 380.523 111.123 377.084 115.064Z" fill="#D9DDFC"/>
</g>
<path d="M398.323 161.182C397.45 166.988 390.141 166.458 385.586 165.942C380.879 165.412 374.61 163.658 374.61 163.658L362.468 154.469C362.468 154.469 366.685 149.285 366.752 146.392C366.818 143.492 366.924 139.044 366.924 139.044C366.924 139.044 368.115 139.044 371.995 139.99C376.119 140.997 378.403 142.109 378.403 142.109C378.403 142.109 381.746 154.31 384.249 153.919C386.255 153.608 378.397 131.695 378.397 131.695L389.062 128.239C389.062 128.233 399.495 153.383 398.323 161.182Z" fill="#83E5DB"/>
</g>
<path d="M494.213 76.592C494.213 81.3322 490.365 85.184 485.606 85.184C480.848 85.184 477 81.3322 477 76.592C477 71.8518 480.848 68 485.606 68C490.365 68 494.213 71.8518 494.213 76.592Z" stroke="#D1F7F4" stroke-width="10"/>
<path d="M146.213 102.592C146.213 107.332 142.365 111.184 137.606 111.184C132.848 111.184 129 107.332 129 102.592C129 97.8518 132.848 94 137.606 94C142.365 94 146.213 97.8518 146.213 102.592Z" stroke="#FDF0C6" stroke-width="10"/>
<path d="M577.213 102.592C577.213 107.332 573.365 111.184 568.606 111.184C563.848 111.184 560 107.332 560 102.592C560 97.8518 563.848 94 568.606 94C573.365 94 577.213 97.8518 577.213 102.592Z" stroke="#F8D4E1" stroke-width="10"/>
<defs>
<filter id="filter0_d" x="207" y="69" width="89.1393" height="89.1393" filterUnits="userSpaceOnUse" color-interpolation-filters="sRGB">
<feFlood flood-opacity="0" result="BackgroundImageFix"/>
<feColorMatrix in="SourceAlpha" type="matrix" values="0 0 0 0 0 0 0 0 0 0 0 0 0 0 0 0 0 0 127 0"/>
<feOffset dy="6"/>
<feGaussianBlur stdDeviation="7.5"/>
<feColorMatrix type="matrix" values="0 0 0 0 0 0 0 0 0 0.138341 0 0 0 0 0.864629 0 0 0 0.2 0"/>
<feBlend mode="normal" in2="BackgroundImageFix" result="effect1_dropShadow"/>
<feBlend mode="normal" in="SourceGraphic" in2="effect1_dropShadow" result="shape"/>
</filter>
<filter id="filter1_d" x="561.201" y="204.201" width="111.898" height="111.898" filterUnits="userSpaceOnUse" color-interpolation-filters="sRGB">
<feFlood flood-opacity="0" result="BackgroundImageFix"/>
<feColorMatrix in="SourceAlpha" type="matrix" values="0 0 0 0 0 0 0 0 0 0 0 0 0 0 0 0 0 0 127 0"/>
<feOffset dy="6"/>
<feGaussianBlur stdDeviation="7.5"/>
<feColorMatrix type="matrix" values="0 0 0 0 0 0 0 0 0 0.138341 0 0 0 0 0.864629 0 0 0 0.2 0"/>
<feBlend mode="normal" in2="BackgroundImageFix" result="effect1_dropShadow"/>
<feBlend mode="normal" in="SourceGraphic" in2="effect1_dropShadow" result="shape"/>
</filter>
<filter id="filter2_d" x="122" y="134" width="80.0409" height="80.0409" filterUnits="userSpaceOnUse" color-interpolation-filters="sRGB">
<feFlood flood-opacity="0" result="BackgroundImageFix"/>
<feColorMatrix in="SourceAlpha" type="matrix" values="0 0 0 0 0 0 0 0 0 0 0 0 0 0 0 0 0 0 127 0"/>
<feOffset dy="6"/>
<feGaussianBlur stdDeviation="7.5"/>
<feColorMatrix type="matrix" values="0 0 0 0 0 0 0 0 0 0.138341 0 0 0 0 0.864629 0 0 0 0.2 0"/>
<feBlend mode="normal" in2="BackgroundImageFix" result="effect1_dropShadow"/>
<feBlend mode="normal" in="SourceGraphic" in2="effect1_dropShadow" result="shape"/>
</filter>
<filter id="filter3_d" x="412.516" y="101.516" width="75.5025" height="75.5025" filterUnits="userSpaceOnUse" color-interpolation-filters="sRGB">
<feFlood flood-opacity="0" result="BackgroundImageFix"/>
<feColorMatrix in="SourceAlpha" type="matrix" values="0 0 0 0 0 0 0 0 0 0 0 0 0 0 0 0 0 0 127 0"/>
<feOffset dy="6"/>
<feGaussianBlur stdDeviation="7.5"/>
<feColorMatrix type="matrix" values="0 0 0 0 0 0 0 0 0 0.138341 0 0 0 0 0.864629 0 0 0 0.2 0"/>
<feBlend mode="normal" in2="BackgroundImageFix" result="effect1_dropShadow"/>
<feBlend mode="normal" in="SourceGraphic" in2="effect1_dropShadow" result="shape"/>
</filter>
<filter id="filter4_d" x="63" y="216" width="104.97" height="104.97" filterUnits="userSpaceOnUse" color-interpolation-filters="sRGB">
<feFlood flood-opacity="0" result="BackgroundImageFix"/>
<feColorMatrix in="SourceAlpha" type="matrix" values="0 0 0 0 0 0 0 0 0 0 0 0 0 0 0 0 0 0 127 0"/>
<feOffset dy="6"/>
<feGaussianBlur stdDeviation="7.5"/>
<feColorMatrix type="matrix" values="0 0 0 0 0 0 0 0 0 0.138341 0 0 0 0 0.864629 0 0 0 0.2 0"/>
<feBlend mode="normal" in2="BackgroundImageFix" result="effect1_dropShadow"/>
<feBlend mode="normal" in="SourceGraphic" in2="effect1_dropShadow" result="shape"/>
</filter>
<filter id="filter5_d" x="215" y="213" width="80.2002" height="80.2002" filterUnits="userSpaceOnUse" color-interpolation-filters="sRGB">
<feFlood flood-opacity="0" result="BackgroundImageFix"/>
<feColorMatrix in="SourceAlpha" type="matrix" values="0 0 0 0 0 0 0 0 0 0 0 0 0 0 0 0 0 0 127 0"/>
<feOffset dy="6"/>
<feGaussianBlur stdDeviation="7.5"/>
<feColorMatrix type="matrix" values="0 0 0 0 0 0 0 0 0 0.138341 0 0 0 0 0.864629 0 0 0 0.2 0"/>
<feBlend mode="normal" in2="BackgroundImageFix" result="effect1_dropShadow"/>
<feBlend mode="normal" in="SourceGraphic" in2="effect1_dropShadow" result="shape"/>
</filter>
<filter id="filter6_d" x="471.425" y="285.381" width="86.868" height="86.868" filterUnits="userSpaceOnUse" color-interpolation-filters="sRGB">
<feFlood flood-opacity="0" result="BackgroundImageFix"/>
<feColorMatrix in="SourceAlpha" type="matrix" values="0 0 0 0 0 0 0 0 0 0 0 0 0 0 0 0 0 0 127 0"/>
<feOffset dy="6"/>
<feGaussianBlur stdDeviation="7.5"/>
<feColorMatrix type="matrix" values="0 0 0 0 0 0 0 0 0 0.138341 0 0 0 0 0.864629 0 0 0 0.2 0"/>
<feBlend mode="normal" in2="BackgroundImageFix" result="effect1_dropShadow"/>
<feBlend mode="normal" in="SourceGraphic" in2="effect1_dropShadow" result="shape"/>
</filter>
<filter id="filter7_d" x="387" y="208" width="117" height="117" filterUnits="userSpaceOnUse" color-interpolation-filters="sRGB">
<feFlood flood-opacity="0" result="BackgroundImageFix"/>
<feColorMatrix in="SourceAlpha" type="matrix" values="0 0 0 0 0 0 0 0 0 0 0 0 0 0 0 0 0 0 127 0"/>
<feOffset dy="6"/>
<feGaussianBlur stdDeviation="7.5"/>
<feColorMatrix type="matrix" values="0 0 0 0 0 0 0 0 0 0.138341 0 0 0 0 0.864629 0 0 0 0.2 0"/>
<feBlend mode="normal" in2="BackgroundImageFix" result="effect1_dropShadow"/>
<feBlend mode="normal" in="SourceGraphic" in2="effect1_dropShadow" result="shape"/>
</filter>
<filter id="filter8_d" x="308.887" y="102.165" width="26.9303" height="27.9847" filterUnits="userSpaceOnUse" color-interpolation-filters="sRGB">
<feFlood flood-opacity="0" result="BackgroundImageFix"/>
<feColorMatrix in="SourceAlpha" type="matrix" values="0 0 0 0 0 0 0 0 0 0 0 0 0 0 0 0 0 0 127 0"/>
<feOffset dy="-2"/>
<feGaussianBlur stdDeviation="2"/>
<feColorMatrix type="matrix" values="0 0 0 0 0.0514292 0 0 0 0 0.123696 0 0 0 0 0.379913 0 0 0 0.1 0"/>
<feBlend mode="normal" in2="BackgroundImageFix" result="effect1_dropShadow"/>
<feBlend mode="normal" in="SourceGraphic" in2="effect1_dropShadow" result="shape"/>
</filter>
<filter id="filter9_d" x="369.096" y="102.165" width="26.9302" height="27.9847" filterUnits="userSpaceOnUse" color-interpolation-filters="sRGB">
<feFlood flood-opacity="0" result="BackgroundImageFix"/>
<feColorMatrix in="SourceAlpha" type="matrix" values="0 0 0 0 0 0 0 0 0 0 0 0 0 0 0 0 0 0 127 0"/>
<feOffset dy="-2"/>
<feGaussianBlur stdDeviation="2"/>
<feColorMatrix type="matrix" values="0 0 0 0 0.0514292 0 0 0 0 0.123696 0 0 0 0 0.379913 0 0 0 0.1 0"/>
<feBlend mode="normal" in2="BackgroundImageFix" result="effect1_dropShadow"/>
<feBlend mode="normal" in="SourceGraphic" in2="effect1_dropShadow" result="shape"/>
</filter>
</defs>
</svg>
